<svg version="1" xmlns="http://www.w3.org/2000/svg" width="2944" height="2944" viewBox="0 0 2208.000000 2208.000000"><path d="M0 1104v1104h2208V0H0v1104zm1125.5-828.5c39.3 7.2 80.1 24.2 108 44.9 16.9 12.6 37.9 35.8 50.2 55.6 2.3 3.6 199 354.8 437.3 780.5s433.8 775 434.6 776.2l1.4 2.3h-828.6l-32-80.2-31.9-80.3H827.7l-21.8 64c-12 35.2-24.4 71.3-27.5 80.2l-5.6 16.3H412.3c-342.9 0-360.5-.1-359.8-1.7 1.7-4.6 811.4-1549.8 815.7-1556.8 28.2-45.5 77.5-78.2 142.3-94.4 17.9-4.5 29.8-6.3 56.5-8.5 11.4-1 49.8.3 58.5 1.9z"/><path d="M1067 276.7c-29.6 2-50.6 6-76.9 14.5-51.4 16.6-90.8 44.5-115.9 82.2-3.7 5.5-10.8 17.7-15.6 27.1-4.9 9.3-16.7 32-26.3 50.2-9.6 18.3-17.3 34.1-17.1 35 .2 1-.2 1.7-.8 1.6-.6-.1-10.4 17.6-21.7 39.5-21.3 41-21.7 42.2-16.1 42.2 2 0 2.4.5 2.4 3 0 1.6-.4 3-.9 3s-1.1 1-1.3 2.2c-.5 3.4-4.1 3.5-7.1.3-2-2.2-2.5-2.4-3-1.1-.4.9-.2 1.6.3 1.6.6 0 1 1.3 1 3 0 2.5-.4 3-2.4 3-1.9 0-3.1 1.3-6 6.4-2 3.5-3.6 6.7-3.6 7 0 .3 2.7.6 6 .6 5.7 0 6-.1 6-2.5s.2-2.5 7.5-2.5h7.5l.1 5.7c0 3.2.3 5.1.6 4.3 1.1-3 3.7-5 6.3-5 2.7 0 6 2.7 6 4.8 0 .8 2.8 1.2 9 1.2 5.3 0 9 .4 9 1 0 .5.7 1 1.5 1s1.5.7 1.5 1.5.5 1.5 1 1.5c.6 0 1 .9 1 2 0 1.3.7 2 2 2 1.8 0 2-.7 2-7 0-4.2.4-7 1.1-7 .5 0 1.5-1.4 2-3 1.1-2.9 1.2-3 8-3 6.7 0 6.9.1 6.9 2.5 0 2.5.1 2.5 8.4 2.5 10.7 0 11.6.4 11.6 4.6 0 3 .3 3.4 2.5 3.4 1.4 0 2.5-.5 2.5-1 0-.6.9-1 1.9-1 1.1 0 2.2-.6 2.5-1.3.5-1 .7-1 1.2 0 .3.7 1.4 1.3 2.5 1.3 1 0 1.9.4 1.9 1 0 .5.7 1 1.5 1 1 0 1.5-1.1 1.5-3.5 0-3.6-.2-3.7-6-3.9-2-.1-2.6-.7-2.8-3.2-.2-2.4.5-3.9 3.2-6.6 2-2 3.6-3.9 3.6-4.2 0-.3-1.6-.6-3.6-.6-3.5 0-3.5-.1-3.2-3.8l.3-3.7 6.7-.3 6.7-.3 1.2-5.3c.6-2.9 1-8.1.7-11.5l-.4-6.1h6.8c3.9 0 6.8.4 6.8 1 0 1.5 4.9 1.2 6.5-.3.7-.7 1.4-2.2 1.6-3.2.2-1 1.3-2.3 2.4-2.9 1.1-.6 2.3-1.5 2.6-1.9.3-.4 4.1-.7 8.5-.5l7.9.3.3 4.8c.5 7.6 2.6 5.4 3-3.1.3-6.9.2-7.2-2-7.2-2 0-1.8-.5 2.2-4.1 2.7-2.5 4-4.4 3.3-4.6-.7-.3-1.3-1.2-1.3-2 0-.9-1-2.4-2.2-3.4l-2.1-1.9h3.1c1.8 0 3.2-.5 3.2-1 0-.6 1.6-1 3.5-1h3.5v5.5c0 3 .3 5.5.6 5.5 1.3 0 3.3-3.5 3.4-5.8 0-1.2.6-2.2 1.5-2.2 1.1 0 1.5-1.7 1.8-7.3l.3-7.2.2 7.2.2 7.3h7v-7c0-4-.4-7-1-7s-.9-3-.9-7.3l.2-7.2 1 7.2 1 7.3h6.8c6.7 0 6.9.1 6.9 2.5s.2 2.5 7.5 2.5c4.1 0 7.5-.4 7.5-.9s1.1-.4 2.5.2c1.4.7 2.5 1.5 2.5 1.9 0 .5.9.8 2 .8s2 .5 2 1.1c0 .6 1.2.9 2.8.7 2.4-.3 2.7-.7 3-4.6l.3-4.2h20.9l-.6 2.5c-.5 1.9-.2 2.5.9 2.5.9 0 1.9-.5 2.2-1 .3-.6 1.7-1 3.1-1 1.7 0 2.4.6 2.4 1.9 0 1 .7 2.4 1.5 3.1.8.7 1.5 2.1 1.5 3.1 0 1.1.9 2.1 2.4 2.5 2.9.7 4.6-.1 4.6-2.2 0-1.5 2.3-4.4 3.4-4.4.3 0 .6 1.3.6 3 0 1.6.5 3 1 3 .6 0 1 .5 1 1 0 .6-.3.9-.7.9-.5-.1-2-.1-3.5 0-2.8.1-2.8.2-2.8 7.1 0 6.3-.2 7-2 7-2.8 0-2.6.4 2.2 5 2.8 2.8 4.4 3.8 5.2 3 .5-.5 4.2-1 8.1-1 5.9 0 7.5.4 9 2 1 1.1 2.9 2 4.2 2 1.6 0 2.3.6 2.3 2 0 1.5.7 2 2.5 2 2.2 0 2.5.4 2.5 3.5 0 2.4-.5 3.5-1.5 3.5s-1.5 1.1-1.5 3.5.5 3.5 1.5 3.5c.8 0 1.5-.7 1.5-1.6 0-1.4 1.5-1.5 11.7-1.2 8.2.2 11.8.7 12.1 1.5.2.7 1.4 1.3 2.6 1.3 2.8 0 3.6.8 2.9 2.6-.4 1-2.4 1.4-7.4 1.4h-6.9v7h7c6.3 0 7-.2 7-2 0-1.1.4-2 .8-2s1.4.9 2.2 2c.8 1.2 2.6 2 4.2 2 2.8 0 3.7 1.7 1.9 3.6-.6.5-1.1 4-1.3 7.9l-.3 7-6.2.3-6.3.3v6.9c0 6.8.1 7 2.5 7 2.3 0 2.5-.4 2.5-4.5V604h14.4c15.7 0 15.6 0 15.6-6.1V595h13.8l.6 3.1c.3 1.7.6 5.8.6 9v5.9h7.9l.3-7.3.3-7.2 4.3-.3c3.8-.3 4.3 0 5.2 2.4 1.1 2.9 6.7 8.4 8.6 8.4 1.8 0 2.4 5.2 2.4 20.6 0 12.1.2 14.4 1.5 14.4 1.2 0 1.5-1.6 1.5-8.5V627h5.5c5.2 0 5.5-.1 5.5-2.5s.2-2.5 6.9-2.5h6.9l.6-4.5c.6-3.9 1-4.5 3.2-4.5 2.3 0 2.4-.2 2.4-7.5V598h7v7.5c0 4.3.4 7.5 1 7.5s1 .9 1 2c0 1.8.7 2 7.5 2h7.5v-18h-15v-6h29v-13h-7c-6.8 0-7-.1-7-2.5s.2-2.5 7-2.5c5.6 0 7 .3 7 1.5s1.5 1.5 7.5 1.5h7.5v-9h4.5c3.3 0 4.5-.4 4.5-1.5 0-.9.9-1.5 2.1-1.5 2.4 0 4.9-2.2 4.9-4.4 0-.9.5-1.6 1-1.6.6 0 1-.9 1-2 0-2.4 4.4-3.8 6.5-2 .8.7 1.7 2.7 2.1 4.6 1.3 7 2.4 3 2.4-8.6 0-7.3.4-12 1-12s1 3.2 1 7.5c0 6.8.2 7.5 2 7.5s2 .7 2 6.9c0 6.9 0 6.9-3 7.6-2.3.5-3 1.2-3 3.1 0 1.7.6 2.4 1.8 2.4 1.9 0 7.2 5.2 7.2 7 0 .5 1.4 1 3 1 2 0 3-.5 3-1.5 0-1.2 1.4-1.5 7-1.5 6.3 0 7 .2 7 2s-.7 2-7 2h-7v4.5c0 3.4-.4 4.5-1.6 4.5-1.8 0-4.4 2.3-4.4 3.9 0 .7 3.6 1.1 10 1.1h10v-4.5c0-2.5.5-4.5 1-4.5.6 0 1-.5 1-1.1 0-1.9 2.8-3.9 5.5-3.9 2.9 0 4.9 1.6 5.9 4.6.3 1.2 1.8 2.7 3.2 3.5 2 1 2.5 1.9 2.2 4.1-.4 2.6-.2 2.8 3.4 2.8 3.5 0 3.8-.2 3.8-2.9 0-1.6.7-3.4 1.6-4.1 1.3-1.1 1.6-1 2 .7.5 1.9 1.7 2.1 14.7 2.9l14.2.9.7 4.7c.6 4.7 2.6 7.8 4.8 7.8 1.2 0 4 2.4 4 3.4 0 .3-2 .6-4.4.6-3.7 0-4.4.3-4.8 2.2-.2 1.3-.2 3.3 0 4.5.3 2.3.6 2.3 14.8 2.3h14.5l-.3 2.7c-.2 2.2-.9 2.9-3 3.1-2.8.3-2.8.4-2.8 7.3v6.9l-3.2.2c-1.8.1-4.3.2-5.5.2-1.3.1-2.3.4-2.3.8-.1 5.1-.6 4.9 8.3 4.6 8.1-.3 8.2-.3 8.5-3 .2-1.4 1-3.2 1.8-3.8.8-.7 1.4-2.3 1.4-3.6 0-1.3.5-2.4 1-2.4.6 0 1-.9 1-2 0-3.1 2.1-5.8 4.1-5.3 1.5.4 1.4-.4-1.2-5.1-2.4-4.4-3.6-5.6-5.5-5.6-1.7 0-2.4-.6-2.4-1.9 0-1.1.5-2.1 1.1-2.3 1.1-.4-4.8-11.3-40.6-75.3-9-16-31.7-56.7-50.5-90.5-40.7-72.9-40.3-72.3-50.5-85.8-19.8-26.4-45.7-46.9-77.5-61.3-26.5-12-50.9-19.3-74.3-22.4-10.6-1.3-36.9-1.8-50.7-.8zm127.9 36.7c1.5 1.8.3 4.6-1.9 4.6-2.4 0-3.3-1.5-2.5-4 .7-2.3 2.8-2.6 4.4-.6zm47.7 75c1.7 1.8 1.7 3.6-.1 5.9-1.7 2.3-4.3 1.9-6.1-.8-1.2-1.8-1.1-2.4.2-4.3 1.7-2.5 3.9-2.8 6-.8zm-116.3 22c.3.8-.1 2.2-.8 3.3-1.1 1.4-1.8 1.6-3.2.7-1-.6-1.9-2.1-2.1-3.3-.3-1.7.2-2.1 2.6-2.1 1.7 0 3.2.6 3.5 1.4zm-187.3 58c0 .2-.7.9-1.5 1.6-1.2 1-1.5 1-1.5-.4 0-.9.7-1.6 1.5-1.6s1.5.2 1.5.4zm-7 13.1c0 .5-1 2.9-2.2 5.2-2.4 4.5-4.8 5.4-7.3 2.9-1.9-1.8-.9-2.6 3.3-2.6 2.2 0 3.2-.4 2.9-1.3-.2-.6-1.5-1.2-2.8-1.2-4.8-.1-6.9-1.5-6.9-4.6 0-1.9.6-3.2 1.8-3.6.9-.4 2.3-1.3 3.1-2.1 1.2-1.1 1.9-.8 4.7 2.5 1.9 2.1 3.4 4.2 3.4 4.8zm64-5.5c0 1.1.5 2 1 2 .6 0 1 .7 1 1.5 0 1.1-1.1 1.5-4 1.5-2.2 0-4-.2-4-.3 0-.2.7-1.8 1.6-3.5 1.7-3.6 4.4-4.3 4.4-1.2zm-53 7.5c0 4-1.5 4.7-2.4 1-.4-1.4-1.1-2.5-1.6-2.5-.6 0-1-.5-1-1 0-.6 1.1-1 2.5-1 2.2 0 2.5.4 2.5 3.5zm40.8-2.8c-2.1.2-5.7.2-8 0-2.4-.2-.7-.4 3.7-.4s6.3.2 4.3.4zm111.2 1.7c0 .3-.4.8-1 1.1-.5.3-1 .1-1-.4 0-.6.5-1.1 1-1.1.6 0 1 .2 1 .4zm70 1.7c-.7 1.2-1.7 1.8-2.7 1.5-.8-.3-1.7-.6-1.9-.6-.2 0-.4-.7-.4-1.5 0-1 1-1.5 3-1.5 2.8 0 3 .2 2 2.1zm-207.2 3.2c.3 3.5.2 3.7-2.7 3.7-2.4 0-3.1-.4-3.1-2 0-2.9 2.2-6.1 4-5.8.9.2 1.6 1.7 1.8 4.1zm-132.8 5c0 6.8-5.2 10-9.1 5.6-1.7-2-1.7-2.3-.2-5.3.9-1.7 2.5-3.9 3.6-4.9 1.9-1.6 2.1-1.6 3.9.2 1 1.1 1.8 3.1 1.8 4.4zm123.5 2.7c.4.6-.7 1-2.4 1s-3.1-.5-3.1-1c0-.6 1.1-1 2.4-1 1.4 0 2.8.4 3.1 1zM925 520c0 1.3-.7 2-1.9 2-1.1 0-2.1.5-2.3 1.2-.3.8-1.2.8-3.6-.3-4-1.8-4-2.4.1-3.7 5.4-1.7 7.7-1.5 7.7.8zm-23.4 1.4c3.4 3.5.6 6.2-4.6 4.5-3.3-1.2-3.7-2.2-1.7-4.4 1.6-1.8 4.5-1.9 6.3-.1zM914 539c0 .5-.4 1-1 1-.5 0-1-.5-1-1 0-.6.5-1 1-1 .6 0 1 .4 1 1zm425 2c0 .5-.4 1-1 1-.5 0-1-.5-1-1 0-.6.5-1 1-1 .6 0 1 .4 1 1zm-206 10.6c0 3-.3 3.4-2.5 3.4-3.5 0-4.1-2.4-1.3-5.3 2.9-3 3.8-2.6 3.8 1.9zm208.6 1.6c.8 2.6 6.5 2.4 8.4-.2 2.6-3.7 7-1.5 7 3.5 0 2.8-1.4 4.7-4.2 5.8-2 .7-2.5 6.1-.8 7.2.6.3.9 3.9.9 7.8-.1 4-.3 6.1-.6 4.7-.2-1.4-.6-4-.9-5.8l-.5-3.2H1337v-12c0-11.8 0-12 2-10.8 1.1.7 2.3 2.1 2.6 3zm-538.8 23.5l.3 7.3H800c-2.9 0-3-.2-3-4.4 0-7.7 1-10.7 3.4-10.4 1.9.3 2.1 1 2.4 7.5zm-8.6 2.1c1 1.8 1.6 3.8 1.3 4.3-.8 1.2-10.2 1.2-10.9 0-.5-.8.5-3.4 2.7-6.9 1.5-2.2 4.9-.9 6.9 2.6zm50.8-1.2c0 2.4-.3 2.6-3.1 2-1.7-.3-5.8-.6-9-.6-4.5 0-5.9-.3-5.9-1.5 0-1.1 1.7-1.5 7.3-1.8 3.9-.1 8-.4 9-.5 1.2-.1 1.7.5 1.7 2.4zm320.6 5.3c-1.5 2.4-3.6 1.1-3.6-2.1v-3.2l2.1 2.1c1.2 1.1 1.8 2.6 1.5 3.2z"/><path d="M1002 523.5c0 1.2 1.4 1.5 7 1.5s7-.3 7-1.5-1.4-1.5-7-1.5-7 .3-7 1.5zM896 569c0 11.8.2 14 1.5 14s1.5-2.2 1.5-14-.2-14-1.5-14-1.5 2.2-1.5 14zM1018 571c0 1.1.4 2 .9 2 1.1 0 2.2-2.6 1.4-3.4-1.2-1.2-2.3-.5-2.3 1.4zM1043 572c0 .5.5 1 1 1 .6 0 1-.5 1-1 0-.6-.4-1-1-1-.5 0-1 .4-1 1zM1264 586.5c0 2.4.2 2.5 7 2.5s7-.1 7-2.5-.2-2.5-7-2.5-7 .1-7 2.5zM1036.8 586.7c.7.3 1.6.2 1.9-.1.4-.3-.2-.6-1.3-.5-1.1 0-1.4.3-.6.6zM1019 590.4c0 .2.9.6 2 .9 1.1.3 2 .1 2-.4s-.9-.9-2-.9-2 .2-2 .4zM1016.8 595.7c.6.2 1.8.2 2.5 0 .6-.3.1-.5-1.3-.5-1.4 0-1.9.2-1.2.5zM1071 597.9c0 .5.7 1.2 1.6 1.5 2.7 1 3.6.7 2-.9-1.6-1.7-3.6-2-3.6-.6zM1366 607.5c0 1.2 1.4 1.5 7 1.5s7-.3 7-1.5-1.4-1.5-7-1.5-7 .3-7 1.5zM1087 612c0 .5.5 1 1 1 .6 0 1-.5 1-1 0-.6-.4-1-1-1-.5 0-1 .4-1 1zM1132.4 616.1c.3 1.7.6 4.9.6 7 0 3.5.3 3.9 2.5 3.9 2.4 0 2.5-.2 2.5-7v-7h-3.1c-3 0-3.1.2-2.5 3.1zM1346 620v7h2.9c4.7 0 6.1-1 6.1-4.1 0-1.6.5-2.9 1-2.9.6 0 1-1.1 1-2.5s.5-2.5 1-2.5c.6 0 1-.5 1-1 0-.6-2.8-1-6.5-1h-6.5v7zM1362 614.9c0 1.1.9 2.3 2 2.6 1.3.4 2 1.5 2 3.2 0 1.4 1 3.4 2.2 4.5l2.2 1.9-2.2.6c-2.1.5-2.2 1.1-2.2 10.4 0 8.1.3 9.9 1.5 9.9.8 0 1.5-.9 1.5-2s.5-2 1-2c.6 0 1-3.4 1-8.1 0-7.2.2-8.1 2-8.6 1.3-.3 2-1.4 2-2.9 0-1.3.5-2.4 1-2.4.6 0 1-2 1-4.5V613h-7.5c-6.7 0-7.5.2-7.5 1.9zM871 620.5c0 1.2 1.4 1.5 6.5 1.5s6.5-.3 6.5-1.5-1.4-1.5-6.5-1.5-6.5.3-6.5 1.5zM1249 624.5c0 1.8.5 2.5 2 2.5 2.3 0 2.6-1.6.6-3.6s-2.6-1.8-2.6 1.1zM1261.3 623.5c-1.9 2.1-1.6 3.5.7 3.5 1.5 0 2-.7 2-2.5 0-2.8-.9-3.1-2.7-1zM1380.7 627.6c-.3.3-.3 1.2 0 2 .4 1 .8 1.1 1.8.1.7-.7 1.1-1.5.8-2-.5-.9-1.7-.9-2.6-.1zM745.6 629.5c.4.8 1.5 1.5 2.5 1.5s1.9-.7 1.9-1.5c0-.9-.9-1.5-2.5-1.5-1.8 0-2.3.4-1.9 1.5zM754.3 635c0 4.1.2 5.8.4 3.7.2-2 .2-5.4 0-7.5-.2-2-.4-.3-.4 3.8zM1220 630.5c0 3.1.7 3.1 3.1.3 2.4-2.7 2.4-2.8-.6-2.8-2 0-2.5.5-2.5 2.5zM1421 629.9c0 .6.4 1.3 1 1.6.6.3.7-.1.4-.9-.7-1.8-1.4-2.1-1.4-.7zM1337 634c0 .6 3 1 7 1s7-.4 7-1-3-1-7-1-7 .4-7 1zM1392.8 636.2c-.6 1.7.1 3.8 1.3 3.8.5 0 .9-1.1.9-2.5 0-2.6-1.4-3.4-2.2-1.3zM739 639.5c0 1.6.6 2.5 1.5 2.5 1.6 0 1.9-.9.9-3.4-.9-2.5-2.4-1.9-2.4.9zM1206 644c0 1.8.7 2 7 2s7-.2 7-2-.7-2-7-2-7 .2-7 2zM753 644.9c0 .5.9.7 2 .4 1.1-.3 2-.7 2-.9 0-.2-.9-.4-2-.4s-2 .4-2 .9zM1381.1 652.7c0 1.2-.4 2.8-.7 3.7-.4 1.1 0 1.6 1.3 1.6 1 0 2.5.9 3.3 2 1.7 2.3 3 2.6 3 .6 0-.8-1.3-2.5-2.9-3.9-1.6-1.3-3.1-3.3-3.4-4.3-.4-1.7-.5-1.6-.6.3zM1391.6 658.5c2.5 1.9 4 1.9 2 0-.8-.8-2-1.5-2.7-1.5-.7 0-.4.6.7 1.5zM1380 662c0 1.1.5 2 1 2 .6 0 1-.9 1-2s-.4-2-1-2c-.5 0-1 .9-1 2zM1239 673.5c0 .8.7 1.5 1.5 1.5s1.5-.4 1.5-.9-.7-1.1-1.5-1.5c-.9-.3-1.5 0-1.5.9zM1252.8 672.7c.7.3 1.6.2 1.9-.1.4-.3-.2-.6-1.3-.5-1.1 0-1.4.3-.6.6zM1235.1 678.6c0 1.1.3 1.4.6.6.3-.7.2-1.6-.1-1.9-.3-.4-.6.2-.5 1.3zM1253 684.4c0 .9.5 1.6 1 1.6.6 0 1-.4 1-.9 0-.6-.4-1.3-1-1.6-.5-.3-1 .1-1 .9zM1258.5 687c.3.5 1.2.7 2 .3 2.1-.7 1.9-1.3-.6-1.3-1.1 0-1.8.4-1.4 1zM1255.1 689.2c-.1 1-.5 1.8-1.1 1.8-.5 0-1 1-1 2.2.1 2.2.2 2.1 1.6-.5.8-1.6 1.3-3.4 1-4-.2-.7-.5-.4-.5.5zM1253.2 700.5c0 1.6.2 2.2.5 1.2.2-.9.2-2.3 0-3-.3-.6-.5.1-.5 1.8zM1273 706.6c0 1.4.3 1.4 1.5.4.8-.7 1.5-1.4 1.5-1.6 0-.2-.7-.4-1.5-.4s-1.5.7-1.5 1.6zM786.5 736c-.4.7-.3 1.6.3 2.2 1.4 1.4 4.7.6 4.7-1.2 0-1.8-4-2.6-5-1zM823.8 743.7c.7.3 1.6.2 1.9-.1.4-.3-.2-.6-1.3-.5-1.1 0-1.4.3-.6.6zM764.8 763.1c-1 1-1.8 3-1.8 4.4 0 2 .5 2.5 2.5 2.5 2.4 0 3 .9 2.6 3.7-.1.8.9 1.3 2.4 1.3 1.8 0 2.5-.5 2.5-1.9 0-2.9-1.1-5.1-2.5-5.1-.7 0-1.6-1.6-1.9-3.5-.8-3.9-1.3-4.2-3.8-1.4zM755.3 772.7c.9.2 2.3.2 3 0 .6-.3-.1-.5-1.8-.5-1.6 0-2.2.2-1.2.5zM829.3 774.7c-2.2.8-1.4 3.9 1.2 5.1 2.2 1 2.7.9 3.2-.5.4-.9.1-1.9-.5-2.1-.7-.2-1.2-1-1.2-1.8 0-1.4-.6-1.6-2.7-.7zM778.5 783.7c1.1.3 2.3 1 2.7 1.7.5.7.8.5.8-.7s-.7-1.7-2.7-1.6c-2.2.1-2.3.2-.8.6zM1166 787c0 .5.7 1 1.6 1 .8 0 1.2-.5.9-1-.3-.6-1-1-1.6-1-.5 0-.9.4-.9 1zM823 795.4c0 1 .9 1.6 2.1 1.6 2.4 0 2.1-2.3-.4-2.8-1-.2-1.7.3-1.7 1.2zM796.1 800.6c0 1.1.3 1.4.6.6.3-.7.2-1.6-.1-1.9-.3-.4-.6.2-.5 1.3zM741 879.9c0 .5 1.1 1.1 2.5 1.3 1.7.4 2.5.1 2.5-.8 0-.8-1.1-1.4-2.5-1.4s-2.5.4-2.5.9zM779.8 885.7c.7.3 1.6.2 1.9-.1.4-.3-.2-.6-1.3-.5-1.1 0-1.4.3-.6.6zM748 891.7c0 1.9-4.1 4.3-7.2 4.3-1 0-1.8.7-1.8 1.5 0 1 1.1 1.5 3.5 1.5 1.9 0 3.5-.5 3.5-1 0-.6 1.5-1 3.4-1 2.6 0 3.6.5 4.1 2 .6 2 3.5 2.8 3.5 1 0-.6.9-1 2-1 3.4 0 2.2-2.4-2-4.3-2.2-.9-4-2.4-4-3.2 0-.9-.9-1.5-2.5-1.5-1.7 0-2.5.6-2.5 1.7zM735 902c0 .5-1.2 1-2.7 1-3.7 0-1.7 1.6 3 2.3 3.4.5 3.7.4 3.7-1.9 0-1.7-.5-2.4-2-2.4-1.1 0-2 .4-2 1zM831.3 902.5c-1 1.1-.9 1.5.8 2 2.5.8 3.1.3 2.3-1.9-.7-1.9-1.5-2-3.1-.1zM754 911c0 .6 3 1 7 1s7-.4 7-1-3-1-7-1-7 .4-7 1zM748 929c0 .5.5 1 1 1 .6 0 1-.5 1-1 0-.6-.4-1-1-1-.5 0-1 .4-1 1zM830 962c0 .5.5 1 1 1 .6 0 1-.5 1-1 0-.6-.4-1-1-1-.5 0-1 .4-1 1zM964.1 1232.2c-46.4 117.9-84.6 214.9-84.8 215.5-.4 1 32.2 1.3 161.2 1.3 128.9 0 161.6-.3 161.3-1.3-.3-.6-34.6-97.6-76.3-215.5-41.7-117.8-76.2-214.2-76.5-214.2-.3 0-38.6 96.4-84.9 214.2z"/></svg>